<svg xmlns="http://www.w3.org/2000/svg" width="40" height="39.988" viewBox="0 0 40 39.988"><defs><style>.a{fill:#38470b;}</style></defs><path class="a" d="M23.972,3.986A.952.952,0,0,0,23.834,4H4v7.454a.952.952,0,0,0,0,.31v6.352a.952.952,0,0,0,0,.31V25.89H23.827a.952.952,0,0,0,.31,0H43.974V18.436a.952.952,0,0,0,0-.31V11.773a.952.952,0,0,0,0-.31V4H24.133A.952.952,0,0,0,23.972,3.986ZM5.9,5.9H23.035v4.759H5.9Zm19.035,0H42.07v4.759H24.938ZM5.9,12.565H23.035v4.759H5.9Zm19.035,0H42.07v4.759H24.938ZM5.9,19.228H23.035v4.759H5.9Zm19.035,0H42.07v4.759H24.938ZM11.614,28.351l-4.48,4.48A.952.952,0,1,0,8.48,34.177l2.182-2.183V36.36A5.7,5.7,0,0,1,4.951,42.07a.952.952,0,1,0,0,1.9,7.629,7.629,0,0,0,7.614-7.614V31.995l2.182,2.182a.952.952,0,1,0,1.346-1.346Zm12.373,0-4.48,4.48a.952.952,0,1,0,1.346,1.346l2.182-2.183V43.022a.952.952,0,1,0,1.9,0V31.995l2.182,2.182a.952.952,0,1,0,1.346-1.346Zm12.373,0-4.48,4.48a.952.952,0,1,0,1.346,1.346l2.182-2.183V36.36a7.629,7.629,0,0,0,7.614,7.614.952.952,0,1,0,0-1.9,5.7,5.7,0,0,1-5.711-5.711V31.995l2.182,2.182a.952.952,0,1,0,1.346-1.346Z" transform="translate(-3.987 -3.986)"/></svg>