<svg xmlns="http://www.w3.org/2000/svg" width="40" height="39.919" viewBox="0 0 40 39.919"><defs><style>.a{fill:#38470b;}</style></defs><g transform="translate(-2 -2.094)"><path class="a" d="M38.929,2.094a3.209,3.209,0,0,0-.6.054A3.006,3.006,0,0,0,36.4,3.425c-.007.01-.02.017-.027.027L28.168,16.061a3.8,3.8,0,0,0-.951-.136,3.1,3.1,0,0,0-.408.054,4.243,4.243,0,0,0-7.853-.054,5.436,5.436,0,0,0-1.495.272,3.357,3.357,0,0,0-2.418-1.141,3.246,3.246,0,0,0-1.2.3,4.231,4.231,0,0,0-1.413-.3A4.29,4.29,0,0,0,8.25,18.7a4.29,4.29,0,0,0-3.641,4.185H2.788a.866.866,0,0,0-.788.87V26.9C2,31.136,4.32,34.91,7.326,37.61s6.726,4.4,9.918,4.4h9.511c3.193,0,6.912-1.7,9.918-4.4S42,31.136,42,26.9V23.751a.871.871,0,0,0-.87-.87H40.125a3.6,3.6,0,0,0-1.658-2.011,3.429,3.429,0,0,0-2.989-3.125,4.632,4.632,0,0,0-1.3-1.793l7.065-9.076a3.007,3.007,0,0,0-.625-4.266A2.854,2.854,0,0,0,38.929,2.094ZM38.9,3.806a1.269,1.269,0,0,1,.707.245,1.191,1.191,0,0,1,.245,1.739L29.337,19.322A1.966,1.966,0,0,0,28.3,19.05H28.25L37.842,4.376a1.254,1.254,0,0,1,.815-.543A1.173,1.173,0,0,1,38.9,3.806ZM22.87,15.056a2.6,2.6,0,0,1,2.554,2.065l.19.924.9-.272a2.687,2.687,0,0,1,.6-.109l-1.386,2.147a.869.869,0,0,0,1.005,1.277,8.313,8.313,0,0,1,1.576-.3,2.131,2.131,0,0,1,.951.245.867.867,0,0,0,1.114-.217l2.717-3.505a2.584,2.584,0,0,1,1.005,1.44l.163.707.707-.054c.166-.007.19,0,.082,0a1.725,1.725,0,0,1,1.739,1.739c0-.082-.017-.041-.027.109l-.027.652.625.217a1.75,1.75,0,0,1,.924.761H23.739a.87.87,0,1,0-1.739,0H6.348a2.6,2.6,0,0,1,2.609-2.609h.87V19.4a2.623,2.623,0,0,1,3.668-2.391l.38.19.38-.19a1.7,1.7,0,0,1,.788-.217,1.73,1.73,0,0,1,1.467.788l.38.6.652-.245a3.931,3.931,0,0,1,1.413-.272,3.83,3.83,0,0,1,.435.027l.761.082.19-.734A2.6,2.6,0,0,1,22.87,15.056Zm0,1.739a.87.87,0,1,0,.87.87A.871.871,0,0,0,22.87,16.795ZM13.3,18.534a.87.87,0,1,0,.87.87A.871.871,0,0,0,13.3,18.534Zm2.609,1.739a.87.87,0,1,0,.87.87A.871.871,0,0,0,15.913,20.273ZM3.739,24.621H40.261V26.9c0,3.594-1.99,6.943-4.728,9.4s-6.23,3.967-8.777,3.967H17.245c-2.548,0-6.039-1.508-8.777-3.967S3.739,30.5,3.739,26.9Z" transform="translate(0)"/></g></svg>