<svg xmlns="http://www.w3.org/2000/svg" width="40" height="40.003" viewBox="0 0 40 40.003"><defs><style>.a{fill:#38470b;}</style></defs><g transform="translate(0.006 0.009)"><path class="a" d="M8.7,0a.806.806,0,0,0-.475.225L.349,8.122a.763.763,0,0,0-.125.1.378.378,0,0,0-.05.05c-.019.025-.034.05-.05.075a.673.673,0,0,0-.075.15A.784.784,0,0,0,0,8.722.819.819,0,0,0,0,8.9v30.3a.8.8,0,0,0,.8.8H3.2a.8.8,0,0,0,.8-.8V25.6h9.6v1.6H4.8v1.6h8.8v1.6H4.8v1.6h8.8v1.6H4.8v1.6h8.8v1.6H4.8v1.6h8.8v.8a.8.8,0,0,0,.8.8h2.4a.8.8,0,0,0,.8-.8V24.92a.835.835,0,0,0,0-.125V8.922a.835.835,0,0,0,0-.125V8.672a.935.935,0,0,0-.025-.1.869.869,0,0,0-.05-.125L17.5,8.422a.963.963,0,0,0-.1-.15V8.247l-.025-.025h-.025a.378.378,0,0,0-.05-.05L9.373.223A.807.807,0,0,0,8.7,0Zm.1,1.95L14.847,8H2.749ZM1.6,9.6H16V24H1.6Zm7.2,1.6a5.6,5.6,0,1,0,5.6,5.6A5.622,5.622,0,0,0,8.8,11.2Zm0,1.6a4,4,0,1,1-4,4A4.007,4.007,0,0,1,8.8,12.8ZM18.4,16v1.6a7.076,7.076,0,0,1,5.974,2.525,18.786,18.786,0,0,1,2.85,5.9,22.448,22.448,0,0,0,2.925,6.374,7.919,7.919,0,0,0,6.649,3.125,1.777,1.777,0,0,1,1.6,1.825v.975c-4.412-.106-7.458-.9-9.449-2.075a9.965,9.965,0,0,1-4.075-4.6c-.816-1.715-1.259-3.487-2.075-4.974A4.814,4.814,0,0,0,18.4,24v1.6a2.871,2.871,0,0,1,2.975,1.825c.662,1.212,1.156,3.04,2.05,4.924a11.712,11.712,0,0,0,4.7,5.3c2.447,1.444,5.94,2.35,11.074,2.35a.8.8,0,0,0,.8-.8v-1.85a3.333,3.333,0,0,0-3.2-3.425,6.083,6.083,0,0,1-5.374-2.5A21.808,21.808,0,0,1,28.745,25.5a19.927,19.927,0,0,0-3.15-6.424A8.876,8.876,0,0,0,18.4,16ZM1.6,25.6h.8v12.8H1.6Zm13.6,0H16v12.8h-.8Z" transform="translate(0 0)"/></g></svg>