<svg xmlns="http://www.w3.org/2000/svg" width="34.988" height="34.946" viewBox="0 0 34.988 34.946"><defs><style>.a{fill:#fcffff;}</style></defs><g transform="translate(0)"><path class="a" d="M0,0,18.855,18.855,30.094,7.616,22.565,0H20.6L24.66,4.059c.7.7.48,1.38.131,2.357a3.769,3.769,0,0,0-.284,1.2,3.907,3.907,0,0,0,.415,1.4c.349.769.562,1.4.284,1.68L20.95,14.949c-.139.139-.638-.079-.917-.218a2.947,2.947,0,0,0-1.048-.284,5.41,5.41,0,0,0-.895.218c-.7.278-1.048.349-1.4,0L4.19,2.161c-.42-.42-.278-.7,0-1.4A2.876,2.876,0,0,0,4.321,0h-1.4c0,.071-.065.145-.065.284a2.385,2.385,0,0,0-.2.415l-.7-.7ZM10.955,0C8.721,2.444,8.6,6,10.693,8.1a5.516,5.516,0,0,0,3.623,1.549,6.424,6.424,0,0,0,4.539-1.964A5.953,5.953,0,0,0,19.837,0H17.873a1.309,1.309,0,0,1,.5.349c1.607,1.607,1.449,4.4-.436,6.285a5.141,5.141,0,0,1-3.557,1.528,3.862,3.862,0,0,1-2.728-1.113c-1.607-1.607-1.449-4.4.436-6.285A10.172,10.172,0,0,1,13.138,0ZM3.71,5.805l8.162,13.05,3.012-1.877-2.532-2.532a.875.875,0,0,0-.415.087c-.769.139-1.118.139-1.4-.349l-2.51-3.994Zm22.7.065,1.746,1.746L26.472,9.3a8.3,8.3,0,0,1-.349-.917,3.623,3.623,0,0,1-.284-.764,6.682,6.682,0,0,1,.218-.633A4.215,4.215,0,0,0,26.406,5.87Zm-5.5,2.1a2.22,2.22,0,0,0-1.571.633,2.125,2.125,0,0,0-.611,1.528,2.636,2.636,0,0,0,.7,1.615,2.215,2.215,0,0,0,3.055,0,2.279,2.279,0,0,0,0-3.143A2.22,2.22,0,0,0,20.907,7.966Zm.044,1.4a.805.805,0,0,1,.567.2.819.819,0,0,1,0,1.2.966.966,0,0,1-1.2,0,.805.805,0,0,1-.2-.567,1.351,1.351,0,0,1,.262-.633A.805.805,0,0,1,20.95,9.362Zm-8.38,6.416c.071,0,.276.213.415.284.071.071.213.147.284.218l-.982.546-.546-.895c.21,0,.341-.087.48-.087A1.51,1.51,0,0,0,12.57,15.778Zm6.22,0a2.515,2.515,0,0,1,.48.218c.071.071.21.06.349.131l-.764.764-.829-.829a1.318,1.318,0,0,1,.415-.131A1.253,1.253,0,0,1,18.79,15.778Zm-8.751,3.754a1.95,1.95,0,0,0-1.4.655,1.564,1.564,0,0,0-.24.546,4.507,4.507,0,0,0-2.532-.458H5.849a1.924,1.924,0,0,0-1.353,1c-.063.136.005.295-.022.436A5.269,5.269,0,0,0,2.4,21.19a2.372,2.372,0,0,0-1.833.873A2.134,2.134,0,0,0,.284,24.2a4.647,4.647,0,0,0,1.659,1.833l.022.022c.3.226.982.693,1.964,1.353s2.251,1.5,3.514,2.335c2.526,1.669,5.06,3.339,5.74,3.754H13.2a10.267,10.267,0,0,0,2.488,1.288,5.627,5.627,0,0,0,4.015-.567h.022c1.012-.507,4.981-2.6,6.307-3.3a2.582,2.582,0,0,1,1.2-.415,2.092,2.092,0,0,1,1,.458l1.9,1.244a.7.7,0,1,0,.764-1.157l-1.877-1.266a3.349,3.349,0,0,0-1.724-.677,3.775,3.775,0,0,0-1.92.567c-1.32.7-5.3,2.791-6.263,3.273a4.125,4.125,0,0,1-3.055.48A10.438,10.438,0,0,1,13.9,32.277V32.3c-.578-.355-3.175-2.043-5.7-3.71-1.26-.832-2.5-1.669-3.492-2.335s-1.757-1.184-1.92-1.309l-.022-.022a3.531,3.531,0,0,1-1.2-1.266.591.591,0,0,1,.109-.742.9.9,0,0,1,.764-.327,4.382,4.382,0,0,1,1.92.589.707.707,0,0,0,.2.175l6.372,4.256a.722.722,0,0,0,.175.109,2.241,2.241,0,0,0,.458.393,4.6,4.6,0,0,0,2.4.524h4.059a19.228,19.228,0,0,0,4.517-.72.7.7,0,1,0-.393-1.353,19.131,19.131,0,0,1-4.125.677H13.967a3.563,3.563,0,0,1-1.7-.327.679.679,0,0,1-.393-.72.686.686,0,0,1,.393-.7,3.358,3.358,0,0,1,1.7-.349,14.809,14.809,0,0,0,3.339-.5c.014,0,.03,0,.044,0a.7.7,0,0,0,.5-.131,10.205,10.205,0,0,0,2.248-.851.325.325,0,0,0,.044-.022c1.571-.982,1.454-2.684,5.412-2.684a6.907,6.907,0,0,1,3.383.786c1.743.671,5.041,2.291,5.041,2.291a.7.7,0,0,0,.611-1.266s-3.263-1.588-5.15-2.313a8.563,8.563,0,0,0-3.885-.895c-4.395,0-5.469,2.441-6.132,2.881-.005,0-.016.019-.022.022a11.446,11.446,0,0,1-1.9.677c-.434-.281-3.544-2.291-4.67-2.924A5.174,5.174,0,0,0,10.039,19.532Zm.109,1.4a4.455,4.455,0,0,1,2.008.5v-.022c.677.379,2.24,1.383,3.448,2.161a10.353,10.353,0,0,1-1.637.175,6.544,6.544,0,0,0-.982.065l-3.3-2.248c-.068-.349-.016-.434.022-.48A.626.626,0,0,1,10.148,20.929Zm-4.015.7h.022a3.842,3.842,0,0,1,2.051.5.7.7,0,0,0,.262.306l2.924,1.986a2.223,2.223,0,0,0-.851,1.244L5.761,22.478a1.29,1.29,0,0,1,0-.611C5.8,21.777,5.851,21.7,6.132,21.627Z"/></g></svg>