<svg xmlns="http://www.w3.org/2000/svg" width="40" height="34.425" viewBox="0 0 40 34.425"><defs><style>.a{fill:#38470b;}</style></defs><g transform="translate(0 -3.987)"><path class="a" d="M23.1,4a.806.806,0,0,0-.475.225,6.288,6.288,0,0,0-1.1,1.8,7.471,7.471,0,0,0-.75,3.05,4.592,4.592,0,0,0,1.4,3.375A8.493,8.493,0,0,0,27.1,14.4a11.541,11.541,0,0,1,4.225,1.1,3.072,3.072,0,0,1,1.5,2.275.8.8,0,1,0,1.55-.35,4.872,4.872,0,0,0-2.225-3.3A12.569,12.569,0,0,0,27.3,12.8a7.019,7.019,0,0,1-4.025-1.525,2.82,2.82,0,0,1-.9-2.2,6.125,6.125,0,0,1,.6-2.4,6.457,6.457,0,0,1,.8-1.3A.8.8,0,0,0,23.1,4Zm4.75.8A.8.8,0,0,0,28,6.4a6.094,6.094,0,0,1,2.925.625c.925.525,1.7,1.413,1.875,3.45a.8.8,0,0,0,.8.725,5.29,5.29,0,0,1,3.125.95,2.4,2.4,0,0,1,.825,1.65,7.273,7.273,0,0,1-.7,3.5.808.808,0,0,0,1.5.6,8.686,8.686,0,0,0,.8-4.275,4.153,4.153,0,0,0-1.375-2.675A5.717,5.717,0,0,0,34.2,9.672a5.57,5.57,0,0,0-2.475-4.05A7.474,7.474,0,0,0,28,4.8h-.15ZM7.125,7.972a.935.935,0,0,0-.1.025A.8.8,0,0,0,6.4,8.56a.8.8,0,0,0,.225.813l28.8,28.8a.813.813,0,1,0,1.15-1.15L27.55,28H39.2a.8.8,0,0,0,.8-.8V20.8a.8.8,0,0,0-.8-.8H35.35a.813.813,0,0,0-.325,0H31.35a.813.813,0,0,0-.325,0H19.55L7.775,8.222A.8.8,0,0,0,7.125,7.972ZM.8,20a.8.8,0,0,0-.8.8v6.4a.8.8,0,0,0,.8.8H22.4l-1.6-1.6H1.6V21.6H16L14.4,20Zm20.35,1.6H30.4v4.8H25.95ZM32,21.6h2.4v4.8H32Zm4,0h2.4v4.8H36Z" transform="translate(0 0)"/></g></svg>