<svg xmlns="http://www.w3.org/2000/svg" width="40" height="30.438" viewBox="0 0 40 30.438"><defs><style>.a{fill:#38470b;}</style></defs><g transform="translate(-0.031 -12)"><path class="a" d="M11.17,12a7.936,7.936,0,0,0-7.935,7.91v1.827a4.256,4.256,0,0,0-3.2,4.105,4.175,4.175,0,0,0,2.7,3.855l1.952,5.081.025.075h.025a3.429,3.429,0,0,0,.926,1.452l-1.4,2.829a2.28,2.28,0,0,0,1,3.054,2.286,2.286,0,0,0,3.079-1l1.752-3.554H29.969l1.752,3.554a2.284,2.284,0,0,0,4.08-2.053l-1.4-2.829a3.429,3.429,0,0,0,.926-1.452h.025l.025-.075L37.328,29.7a4.175,4.175,0,0,0,2.7-3.855,4.256,4.256,0,0,0-3.2-4.105V19.91A7.936,7.936,0,0,0,28.892,12Zm0,1.6H28.892a6.311,6.311,0,0,1,6.333,6.308v1.752A4.218,4.218,0,0,0,31.9,24.315h-.025l-1.3,2.979c-.106-.034-.169-.059-.3-.1-.6-.181-1.458-.419-2.478-.651a35.312,35.312,0,0,0-7.66-.926,36.49,36.49,0,0,0-7.76.926c-1.045.232-1.931.466-2.553.651-.141.041-.213.066-.325.1L8.267,24.541H8.242a4.214,4.214,0,0,0-3.4-2.879V19.91A6.311,6.311,0,0,1,11.17,13.6ZM4.262,23.214a2.6,2.6,0,0,1,2.5,1.877v.05l.025.05,1.552,3.429.375.826.676-.426.075-.05c.013-.009,0,.016.025,0s.056-.009.1-.025c.16-.053.382-.138.676-.225.591-.172,1.446-.4,2.453-.626a35.211,35.211,0,0,1,7.409-.876,34.005,34.005,0,0,1,7.309.876c.979.222,1.783.454,2.353.626.285.088.523.147.676.2a1.3,1.3,0,0,1,.15.075h.025l.7.426.375-.826,1.627-3.63v-.025l.025-.025a2.58,2.58,0,0,1,2.428-1.7,2.611,2.611,0,0,1,.7,5.131l-.4.1-.125.375-2.128,5.457V34.3l-.025.025a2.286,2.286,0,0,1-1.7,1.477,4.8,4.8,0,0,1-1.352.225.812.812,0,0,0-.651,0H9.919a.8.8,0,0,0-.6,0A4.9,4.9,0,0,1,7.941,35.8a2.286,2.286,0,0,1-1.7-1.477L6.214,34.3v-.05L4.086,28.821l-.125-.375-.4-.1a2.6,2.6,0,0,1-1.927-2.5A2.624,2.624,0,0,1,4.262,23.214ZM7.04,37.156c.141.056.291.135.426.175a6.242,6.242,0,0,0,.9.2L6.89,40.461a.66.66,0,0,1-.6.375.667.667,0,0,1-.3-.075.655.655,0,0,1-.3-.9Zm25.982,0,1.352,2.7a.655.655,0,0,1-.3.9.667.667,0,0,1-.3.075.654.654,0,0,1-.6-.375L31.7,37.532a6.242,6.242,0,0,0,.9-.2C32.731,37.291,32.882,37.213,33.022,37.156Z"/></g></svg>