<svg xmlns="http://www.w3.org/2000/svg" width="40" height="29.222" viewBox="0 0 40 29.222"><defs><style>.a{fill:#38470b;}</style></defs><g transform="translate(-0.059 -7)"><path class="a" d="M20.059,7A27.971,27.971,0,0,0,.638,14.834l-.579.558L4.5,20.018l.583-.558a21.583,21.583,0,0,1,29.961,0l.579.558,4.439-4.626-.579-.558A27.971,27.971,0,0,0,20.059,7Zm0,1.6a26.262,26.262,0,0,1,17.679,6.888L35.52,17.8A22.952,22.952,0,0,0,4.6,17.8L2.38,15.492A26.262,26.262,0,0,1,20.059,8.6Zm0,8.019A18.378,18.378,0,0,0,7.3,21.772l-.579.554,4.457,4.645.576-.558a11.906,11.906,0,0,1,16.614,0l.576.558L33.4,22.327l-.576-.554A18.392,18.392,0,0,0,20.059,16.623Zm0,1.6a16.685,16.685,0,0,1,11.023,4.2l-2.236,2.327a13.285,13.285,0,0,0-17.572,0L9.036,22.427A16.685,16.685,0,0,1,20.059,18.226Zm0,8.019a8.791,8.791,0,0,0-6.1,2.465l-.576.554,6.678,6.957.576-.6,6.1-6.356-.576-.554A8.791,8.791,0,0,0,20.059,26.245Zm0,1.6a7.052,7.052,0,0,1,4.31,1.569l-4.31,4.492-4.31-4.492A7.052,7.052,0,0,1,20.059,27.849Z"/></g></svg>