<svg xmlns="http://www.w3.org/2000/svg" width="30.363" height="31.741" viewBox="0 0 30.363 31.741"><defs><style>.a{fill:#fff;}</style></defs><g transform="translate(-6 -2)"><path class="a" d="M6,2V33.741H32.221v-13.2l3.038-3.019a.777.777,0,0,0,.143-.213l.132-.132a2.822,2.822,0,0,0-3.313-4.493V2ZM7.38,3.38H30.841V14.005l-4.555,4.555H15.66v1.38h9.248l-2.76,2.76H15.66v1.38h5.108l-.278.278c-.137.067-.208.137-.208.275l-1.173,4.14a.659.659,0,0,0,.623.895h.2l4.14-1.1c.07-.07.208-.137.275-.208l6.488-6.445V32.361H7.38Zm3.45,6.9v1.38h2.76V10.28Zm4.83,0v1.38h11.73V10.28Zm-4.83,4.14V15.8h2.76V14.42Zm4.83,0V15.8h11.73V14.42Zm16.42.275,2.038,2.035L23.528,27.253l-.011.005L21.5,25.286l.027-.1ZM10.83,18.561v1.38h2.76v-1.38Zm0,4.14v1.38h2.76V22.7Z"/></g></svg>