<svg xmlns="http://www.w3.org/2000/svg" width="40" height="39.949" viewBox="0 0 40 39.949"><defs><style>.a{fill:#38470b;}</style></defs><g transform="translate(0.044 0.002)"><path class="a" d="M9.1,0a.8.8,0,0,0-.549.325l-1.873,2.4H3.512a.8.8,0,0,0-.8.8V6.691L.316,8.563a.8.8,0,0,0,0,1.248l2.4,1.873v2.372a.8.8,0,1,0,1.6,0v-2.8a.8.8,0,0,0-.325-.624l-1.9-1.448,1.9-1.448a.8.8,0,0,0,.325-.624v-2.8h2.8a.8.8,0,0,0,.624-.325L9.179,2.1l1.448,1.9a.8.8,0,0,0,.624.325h2.8v2.8a.8.8,0,0,0,.325.624l1.9,1.448-1.9,1.448a.8.8,0,0,0,.974,1.273l2.7-2.1a.8.8,0,0,0,0-1.248l-2.4-1.873V3.52a.8.8,0,0,0-.8-.8H11.676L9.8.324A.8.8,0,0,0,9.1,0Zm.075,4.794a4.394,4.394,0,1,0,4.394,4.394A4.4,4.4,0,0,0,9.179,4.793Zm0,1.6a2.8,2.8,0,1,1-2.8,2.8A2.784,2.784,0,0,1,9.179,6.391Zm16.4,6.367a.934.934,0,0,0-.1.025h-.025a.534.534,0,0,0-.1,0C9.388,12.833.341,18.825.341,18.825a.808.808,0,0,0-.35.674V31.333a.819.819,0,0,0,0,.474v7.34a.8.8,0,0,0,.8.8H39.139a.8.8,0,0,0,.8-.8V14.555a.8.8,0,0,0-.125-.624.373.373,0,0,0-.025-.05.83.83,0,0,0-.275-.225l-.025-.025h-.05l-.025-.025h-.05l-.025-.025h-.075a.854.854,0,0,0-.2-.025c-.315-.044-2.887-.378-6.916-.6a.786.786,0,0,0-.424-.025H31.7c-1.757-.091-3.736-.144-5.892-.15A.789.789,0,0,0,25.582,12.758Zm.15,1.623c.98,0,1.91.028,2.8.05a37.844,37.844,0,0,0-5.618,3.845A49.122,49.122,0,0,0,8.63,38.349H1.589V31.807C9.7,19.558,25.314,14.515,25.732,14.38Zm6.167.175c.687.037,1.408.081,2,.125A35.415,35.415,0,0,0,29.9,18.924,65.463,65.463,0,0,0,19.565,38.349H10.377A47.293,47.293,0,0,1,23.934,19.524,30.821,30.821,0,0,1,31.9,14.555Zm-11.06.025C15.752,16.852,7.4,21.437,1.589,29.061V19.948C2.379,19.446,8.986,15.47,20.839,14.58Zm15.355.275c.758.075,1.3.153,1.673.2-1.339,2.6-4.928,10.289-7.989,23.294H21.263A63.223,63.223,0,0,1,31.15,19.923,26.6,26.6,0,0,1,36.193,14.855Zm2.147,2.9v20.6H31.524A110.514,110.514,0,0,1,38.34,17.751Z" transform="translate(0 0)"/></g></svg>