<svg xmlns="http://www.w3.org/2000/svg" width="40" height="36.522" viewBox="0 0 40 36.522"><defs><style>.a{fill:#38470b;}</style></defs><path class="a" d="M7.312,6a.871.871,0,0,0-.864.771c-.067.588-.1,2.957-.1,3.378,0,.309.012.609.032.905a.823.823,0,0,0-.032.163.853.853,0,0,0,.085.363C6.9,15.842,9.466,18.639,13.3,19V25.13H10.7a.87.87,0,1,0,0,1.739h6.957a.87.87,0,0,0,0-1.739H15.043V19h0c3.838-.364,6.4-3.16,6.87-7.422A.853.853,0,0,0,22,11.217a.823.823,0,0,0-.032-.163c.02-.3.032-.6.032-.905,0-.421-.033-2.79-.1-3.378A.871.871,0,0,0,21.035,6ZM25.478,6a.868.868,0,0,0-.866.949l1.739,19.13a.869.869,0,0,0,.866.79h7.826a.869.869,0,0,0,.866-.79l1.739-19.13A.868.868,0,0,0,36.783,6ZM8.136,7.739H20.212c.03.821.049,2,.049,2.41,0,.068-.006.132-.007.2H8.094c0-.067-.007-.131-.007-.2C8.087,9.74,8.107,8.56,8.136,7.739Zm18.295,0h9.4l-.236,2.609H26.667ZM8.26,12.087H20.088c-.6,3.261-2.746,5.217-5.914,5.217S8.857,15.348,8.26,12.087Zm18.567,0h8.607L34.25,25.13h-6.24ZM2.87,28.609a.87.87,0,1,0,0,1.739H41.13a.87.87,0,0,0,0-1.739ZM7.65,33.826a.866.866,0,0,0-.285.056c-.011,0-.023,0-.034.007a.888.888,0,0,0-.132.085.826.826,0,0,0-.156.1A6.232,6.232,0,0,1,2.87,35.565a.87.87,0,1,0,0,1.739,8.179,8.179,0,0,0,4.783-1.5,8.376,8.376,0,0,0,9.565,0,8.376,8.376,0,0,0,9.565,0,8.376,8.376,0,0,0,9.565,0,8.179,8.179,0,0,0,4.783,1.5.87.87,0,0,0,0-1.739,6.238,6.238,0,0,1-4.169-1.484.863.863,0,0,0-.9-.2c-.01,0-.021,0-.031.005a.892.892,0,0,0-.132.085.831.831,0,0,0-.156.1,6.594,6.594,0,0,1-8.342.005.863.863,0,0,0-.9-.2c-.01,0-.021,0-.031.005a.893.893,0,0,0-.132.085.83.83,0,0,0-.156.1A6.232,6.232,0,0,1,22,35.565a6.228,6.228,0,0,1-4.168-1.484.866.866,0,0,0-.9-.2c-.011,0-.023,0-.034.007a.889.889,0,0,0-.132.085.826.826,0,0,0-.156.1,6.232,6.232,0,0,1-4.173,1.489,6.228,6.228,0,0,1-4.168-1.484A.872.872,0,0,0,7.65,33.826Zm0,5.217a.855.855,0,0,0-.486.17.816.816,0,0,0-.122.08A6.232,6.232,0,0,1,2.87,40.783a.87.87,0,1,0,0,1.739,8.179,8.179,0,0,0,4.783-1.5,8.376,8.376,0,0,0,9.565,0,8.376,8.376,0,0,0,9.565,0,8.376,8.376,0,0,0,9.565,0,8.179,8.179,0,0,0,4.783,1.5.87.87,0,1,0,0-1.739A6.238,6.238,0,0,1,36.961,39.3a.863.863,0,0,0-.9-.2c-.01,0-.021,0-.031.005a.892.892,0,0,0-.132.085.831.831,0,0,0-.156.1A6.594,6.594,0,0,1,27.4,39.3a.863.863,0,0,0-.9-.2c-.01,0-.021,0-.031.005a.893.893,0,0,0-.132.085.83.83,0,0,0-.156.1A6.232,6.232,0,0,1,22,40.783,6.228,6.228,0,0,1,17.832,39.3a.857.857,0,0,0-1.1-.085.816.816,0,0,0-.122.08,6.232,6.232,0,0,1-4.173,1.489A6.228,6.228,0,0,1,8.267,39.3.872.872,0,0,0,7.65,39.043Z" transform="translate(-2 -6)"/></svg>