<svg xmlns="http://www.w3.org/2000/svg" width="40" height="37.447" viewBox="0 0 40 37.447"><defs><style>.a{fill:#38470b;}</style></defs><path class="a" d="M7.809,3c-1.824,0-3.356,1.46-4.6,3.02A13.635,13.635,0,0,0,1.66,8.426,5.123,5.123,0,0,0,1,10.66a3.946,3.946,0,0,0,1.765,3.09,5.952,5.952,0,0,0,2.443,1.08A7.884,7.884,0,0,0,3.553,19.6a8.1,8.1,0,0,0,8.085,8.085h5c-.085.2-.17.406-.254.653a19.5,19.5,0,0,0-.911,6.149.851.851,0,0,0,.116.436,10.241,10.241,0,0,0,2.862,2.826,16.985,16.985,0,0,0,9.787,2.7,16.985,16.985,0,0,0,9.787-2.7,10.241,10.241,0,0,0,2.862-2.826A.851.851,0,0,0,41,34.483a19.5,19.5,0,0,0-.911-6.149,4.988,4.988,0,0,0-.683-1.428,1.6,1.6,0,0,0,.228-.334,5.124,5.124,0,0,0,.515-2.3,9.75,9.75,0,0,0-1.888-5.638.852.852,0,0,0-1.2-.133L33.158,21.63a13.7,13.7,0,0,0-4.924-.758,17.414,17.414,0,0,0-2.7.208,8.056,8.056,0,0,0,.143-1.484,7.884,7.884,0,0,0-1.656-4.766,5.952,5.952,0,0,0,2.443-1.08,3.946,3.946,0,0,0,1.765-3.09,5.123,5.123,0,0,0-.66-2.234A13.635,13.635,0,0,0,26.027,6.02C24.782,4.46,23.25,3,21.426,3a3.4,3.4,0,0,0-2.472,1.072,9.307,9.307,0,0,0-8.674,0A3.4,3.4,0,0,0,7.809,3Zm0,1.7a1.674,1.674,0,0,1,1,.336,9.344,9.344,0,0,0-3.549,7.324,6.579,6.579,0,0,0,.047.728,4.465,4.465,0,0,1-1.521-.706A2.32,2.32,0,0,1,2.7,10.66,4.437,4.437,0,0,1,3.186,9.18a12.083,12.083,0,0,1,1.351-2.1C5.633,5.707,7.08,4.7,7.809,4.7Zm6.809,0A7.636,7.636,0,0,1,22,14.378a.851.851,0,0,0,.206.811A6.377,6.377,0,0,1,17.6,25.979H15.468V22.422a3.817,3.817,0,0,0,1.621-1.268,5.649,5.649,0,0,0,.643-1.009,1.821,1.821,0,0,0,.289-.974,1.293,1.293,0,0,0-.525-1,2.553,2.553,0,0,0-.8-.411,6.648,6.648,0,0,0-2.074-.293,6.648,6.648,0,0,0-2.074.293,2.553,2.553,0,0,0-.8.411,1.293,1.293,0,0,0-.525,1,1.821,1.821,0,0,0,.289.974,5.649,5.649,0,0,0,.643,1.009,3.817,3.817,0,0,0,1.621,1.268v3.557H11.638a6.377,6.377,0,0,1-4.609-10.79.851.851,0,0,0,.206-.811A7.636,7.636,0,0,1,14.617,4.7Zm6.809,0c.729,0,2.176,1.005,3.271,2.379a12.083,12.083,0,0,1,1.351,2.1,4.437,4.437,0,0,1,.484,1.479,2.32,2.32,0,0,1-1.079,1.724,4.465,4.465,0,0,1-1.521.706,6.578,6.578,0,0,0,.047-.728A9.344,9.344,0,0,0,20.43,5.038,1.674,1.674,0,0,1,21.426,4.7Zm-9.787,8.511a1.277,1.277,0,1,0,1.277,1.277A1.277,1.277,0,0,0,11.638,13.213Zm5.957,0a1.277,1.277,0,1,0,1.277,1.277A1.277,1.277,0,0,0,17.6,13.213ZM14.617,19.17a5.257,5.257,0,0,1,1.536.206c.028.009.024.012.048.022a4.074,4.074,0,0,1-.444.695,1.874,1.874,0,0,1-1.14.78,1.874,1.874,0,0,1-1.14-.78,4.074,4.074,0,0,1-.444-.695c.025-.01.02-.012.048-.022A5.257,5.257,0,0,1,14.617,19.17Zm22.749,1.273a6.99,6.99,0,0,1,1.08,3.833,3.374,3.374,0,0,1-.336,1.534,1.538,1.538,0,0,1-.266.417.851.851,0,0,0-.076,1.115,5.654,5.654,0,0,1,.708,1.541,17.918,17.918,0,0,1,.8,5.356,7.647,7.647,0,0,1-2.219,2.1,15.191,15.191,0,0,1-8.825,2.4,15.191,15.191,0,0,1-8.825-2.4,7.647,7.647,0,0,1-2.219-2.1,17.918,17.918,0,0,1,.8-5.356,7.091,7.091,0,0,1,.539-1.262,8.1,8.1,0,0,0,6.428-4.706,15.154,15.154,0,0,1,3.276-.342,12.445,12.445,0,0,1,4.759.776.851.851,0,0,0,.879-.111ZM25.255,28.532a1.277,1.277,0,1,0,1.277,1.277,1.277,1.277,0,0,0-1.277-1.277Zm5.957,0a1.277,1.277,0,1,0,1.277,1.277A1.277,1.277,0,0,0,31.213,28.532Zm-2.979,3.4c-1.41,0-2.553.381-2.553.851a4.826,4.826,0,0,0,1.375,1.873,1.9,1.9,0,0,1-1.375.68v1.7A3.426,3.426,0,0,0,28.234,35.9a3.426,3.426,0,0,0,2.553,1.147v-1.7a1.9,1.9,0,0,1-1.375-.68,4.826,4.826,0,0,0,1.375-1.873C30.787,32.317,29.644,31.936,28.234,31.936Z" transform="translate(-1 -3)"/></svg>