<svg xmlns="http://www.w3.org/2000/svg" width="30" height="41.592" viewBox="0 0 30 41.592"><defs><style>.a{fill:#38470b;}</style></defs><g transform="translate(-6.956)"><path class="a" d="M9.488,0a2.509,2.509,0,0,0-2.5,2.5v13.05a.852.852,0,0,0,0,.494V36.6a2.509,2.509,0,0,0,2.5,2.5v.832a1.675,1.675,0,0,0,1.664,1.664h2.5a1.675,1.675,0,0,0,1.664-1.664V39.1h13.31v.832a1.675,1.675,0,0,0,1.664,1.664h2.5a1.675,1.675,0,0,0,1.664-1.664V39.1a2.509,2.509,0,0,0,2.5-2.5V15.961a.845.845,0,0,0,0-.338V2.5a2.509,2.509,0,0,0-2.5-2.5Zm0,1.664H34.443a.821.821,0,0,1,.832.832V14.973H8.656V2.5A.821.821,0,0,1,9.488,1.664Zm3.249,3.3a.972.972,0,0,0-.1.026.833.833,0,0,0-.65.832v5.823a.832.832,0,1,0,1.664,0V5.823a.833.833,0,0,0-.91-.858ZM8.656,16.637H35.275V36.6a.821.821,0,0,1-.832.832H9.488a.821.821,0,0,1-.832-.832Zm4.081,2.47a.972.972,0,0,0-.1.026.833.833,0,0,0-.65.832v5.823a.832.832,0,1,0,1.664,0V19.964a.833.833,0,0,0-.91-.858ZM11.152,39.1h2.5v.832h-2.5Zm19.132,0h2.5v.832h-2.5Z" transform="translate(0)"/></g></svg>