<svg xmlns="http://www.w3.org/2000/svg" width="40" height="36.741" viewBox="0 0 40 36.741"><defs><style>.a{fill:#38470b;}</style></defs><g transform="translate(0.081 -2)"><path class="a" d="M7.971,2a6.39,6.39,0,1,0,6.39,6.39A6.4,6.4,0,0,0,7.971,2Zm0,1.6A4.792,4.792,0,1,1,3.179,8.39,4.782,4.782,0,0,1,7.971,3.6Zm20.617,2.4a.8.8,0,0,0-.649.8v5.591h-.874a.8.8,0,0,0,.075,1.6H38.322a.8.8,0,1,0,0-1.6h-.8v-2.4a.8.8,0,0,0-.8-.8h-1.6v-2.4a.8.8,0,0,0-.8-.8H28.588Zm.948,1.6H33.53V9.738a.818.818,0,0,0,0,.474v2.171H29.536Zm5.591,3.195h.8v1.6h-.8ZM24.594,14.779a.8.8,0,1,0,.15,1.6H36.725a.8.8,0,1,0,0-1.6H24.594Zm-20.617,1.6a29.209,29.209,0,0,0-3.32.324.8.8,0,1,0,.25,1.572c.8-.122,1.835-.206,2.471-.25L7.2,34.123a.8.8,0,0,0,1.548,0L12.588,18c.44.012.911.022,1.672.1a12.088,12.088,0,0,1,1.473.225,4.261,4.261,0,0,1,.6.225s.028,0,.025,0L21.3,25.862a.787.787,0,0,0,.571.334.8.8,0,0,0,.627-.209l4.967-4.817H33.38c-.193.066-.318.137-.524.2-.721.215-1.47.409-2.147.624a3.919,3.919,0,0,0-1.747.849.373.373,0,0,0-.025.05s-1.392,1.6-2.82,3.27c-.714.833-1.423,1.666-2,2.346s-.961,1.111-1.148,1.373H23a3.91,3.91,0,0,1-.7.774c-.122.087-.131.1-.349.1a.565.565,0,0,1-.374-.175,7.384,7.384,0,0,1-.7-.749l-3.519-3.994a.792.792,0,0,0-.88-.218.8.8,0,0,0-.518.743V37.143H.782a.8.8,0,1,0,0,1.6H16.757a.8.8,0,0,0,.8-.8v-9.46l2.122,2.4a7.573,7.573,0,0,0,.9.924,2.192,2.192,0,0,0,1.373.549,2.238,2.238,0,0,0,1.273-.4,4.988,4.988,0,0,0,1.048-1.123c.012-.019.477-.6,1.048-1.273s1.307-1.538,2.022-2.371c1.413-1.654,2.749-3.195,2.771-3.22l.025-.025a7.118,7.118,0,0,1,1.048-.424c.612-.193,1.388-.4,2.147-.624a11.05,11.05,0,0,0,2.122-.8,2.994,2.994,0,0,0,.824-.649,2.3,2.3,0,0,0,.2-.275h.25a3.193,3.193,0,0,0,3.195-3.195.8.8,0,0,0-.8-.8H23.072a.8.8,0,0,0-.724.8,3.168,3.168,0,0,0,2.87,3.145l-3.145,3.07L17.58,17.525a.762.762,0,0,0-.1-.125,2.554,2.554,0,0,0-1.4-.624,12.866,12.866,0,0,0-1.647-.275c-1.129-.115-2.187-.125-2.471-.125a.8.8,0,0,0-.774.624L7.971,30.529,4.751,17A.8.8,0,0,0,3.977,16.377Zm20.292,2.4H38a1.429,1.429,0,0,1-1.273.8H25.543A1.429,1.429,0,0,1,24.27,18.773Z"/></g></svg>