<svg xmlns="http://www.w3.org/2000/svg" width="32.649" height="31.28" viewBox="0 0 32.649 31.28"><defs><style>.a{fill:#fcffff;}</style></defs><path class="a" d="M5.422,4A3.426,3.426,0,0,0,2,7.422V23.847a3.426,3.426,0,0,0,3.422,3.422H8.256a3.871,3.871,0,0,1-1.817,4.2.684.684,0,0,0,.352,1.271,8.382,8.382,0,0,0,8-5.475h2.393a8.2,8.2,0,0,1-.123-1.369H14.319a.682.682,0,0,0-.642.448A7.126,7.126,0,0,1,8.817,31.1a6.1,6.1,0,0,0,.7-4.636.685.685,0,0,0-.674-.561H5.422a2.056,2.056,0,0,1-2.053-2.053V7.422A2.056,2.056,0,0,1,5.422,5.369H30.059a2.056,2.056,0,0,1,2.053,2.053V21.363a8.161,8.161,0,0,1,1.263,3.287,3.383,3.383,0,0,0,.106-.8V7.422A3.426,3.426,0,0,0,30.059,4ZM25.268,19.056A6.844,6.844,0,1,0,29.6,31.194l4.086,4.086.968-.968-4.086-4.086a6.837,6.837,0,0,0-5.294-11.17Zm0,1.369A5.475,5.475,0,1,1,19.794,25.9,5.465,5.465,0,0,1,25.268,20.425Z" transform="translate(-2 -4)"/></svg>