<svg xmlns="http://www.w3.org/2000/svg" width="40" height="43.478" viewBox="0 0 40 43.478"><defs><style>.a{fill:#38470b;}</style></defs><g transform="translate(-3)"><path class="a" d="M5.609,0A2.623,2.623,0,0,0,3,2.609V9.565a20.577,20.577,0,0,0,.462,4.185,22.318,22.318,0,0,1,.408,4.511,10.857,10.857,0,0,1-.408,3.56A10.608,10.608,0,0,0,3,25.217v7.826a2.623,2.623,0,0,0,2.609,2.609H9.957v.87a6.97,6.97,0,0,0,6.957,6.957h.87a6.97,6.97,0,0,0,6.957-6.957v-.87H37.783a2.339,2.339,0,0,0,1.712-.9,8.382,8.382,0,0,0,1.63-2.8C42.154,29.3,43,24.851,43,17.391s-.832-11.668-1.875-14.13S38.788,0,37.783,0H20.391a2.623,2.623,0,0,0-2.609,2.609V33.043a2.623,2.623,0,0,0,2.609,2.609H23v.87a5.206,5.206,0,0,1-5.217,5.217h-.87A5.206,5.206,0,0,1,11.7,36.522v-.87H14.3a2.623,2.623,0,0,0,2.609-2.609V25.217a10.608,10.608,0,0,0-.462-3.4,10.857,10.857,0,0,1-.408-3.56,22.318,22.318,0,0,1,.408-4.511,20.577,20.577,0,0,0,.462-4.185V2.609A2.623,2.623,0,0,0,14.3,0Zm0,1.739h8.7a.858.858,0,0,1,.87.87V9.565a18.874,18.874,0,0,1-.408,3.859,24.532,24.532,0,0,0-.462,4.837,13.411,13.411,0,0,0,.462,4.049,8.008,8.008,0,0,1,.408,2.908v7.826a.858.858,0,0,1-.87.87H10.989a.884.884,0,0,0-.353,0H5.609a.858.858,0,0,1-.87-.87V25.217a8.008,8.008,0,0,1,.408-2.908,13.411,13.411,0,0,0,.462-4.049,24.532,24.532,0,0,0-.462-4.837,18.874,18.874,0,0,1-.408-3.859V2.609A.858.858,0,0,1,5.609,1.739Zm14.783,0H37.783c-.044,0,.849.071,1.739,2.174s1.739,6.155,1.739,13.478S40.4,28.961,39.495,31.3a6.85,6.85,0,0,1-1.25,2.228,1.764,1.764,0,0,1-.516.38H20.391a.858.858,0,0,1-.87-.87V2.609A.858.858,0,0,1,20.391,1.739Zm3.315,2.609a.87.87,0,0,0-.707.87v6.957a.871.871,0,0,0,.87.87H36.043a.871.871,0,0,0,.87-.87V5.217a.871.871,0,0,0-.87-.87H23.707Zm1.033,1.739H35.174V11.3H24.739Zm-.87,8.7a.867.867,0,0,0-.87.87v1.739a.867.867,0,0,0,.87.87h1.739a.867.867,0,0,0,.87-.87V15.652a.867.867,0,0,0-.87-.87Zm5.217,0a.867.867,0,0,0-.87.87v1.739a.867.867,0,0,0,.87.87h1.739a.867.867,0,0,0,.87-.87V15.652a.867.867,0,0,0-.87-.87Zm5.217,0a.867.867,0,0,0-.87.87v1.739a.867.867,0,0,0,.87.87h1.739a.867.867,0,0,0,.87-.87V15.652a.867.867,0,0,0-.87-.87ZM23.87,20a.867.867,0,0,0-.87.87v1.739a.867.867,0,0,0,.87.87h1.739a.867.867,0,0,0,.87-.87V20.87a.867.867,0,0,0-.87-.87Zm5.217,0a.867.867,0,0,0-.87.87v1.739a.867.867,0,0,0,.87.87h1.739a.867.867,0,0,0,.87-.87V20.87a.867.867,0,0,0-.87-.87ZM34.3,20a.867.867,0,0,0-.87.87v1.739a.867.867,0,0,0,.87.87h1.739a.867.867,0,0,0,.87-.87V20.87a.867.867,0,0,0-.87-.87ZM23.87,25.217a.867.867,0,0,0-.87.87v1.739a.867.867,0,0,0,.87.87h1.739a.867.867,0,0,0,.87-.87V26.087a.867.867,0,0,0-.87-.87Zm5.217,0a.867.867,0,0,0-.87.87v1.739a.867.867,0,0,0,.87.87h1.739a.867.867,0,0,0,.87-.87V26.087a.867.867,0,0,0-.87-.87Zm5.217,0a.867.867,0,0,0-.87.87v1.739a.867.867,0,0,0,.87.87h1.739a.867.867,0,0,0,.87-.87V26.087a.867.867,0,0,0-.87-.87Z"/></g></svg>